Coordinates
version=1
nRows=6
nColumns=63
inDegrees=yes

Units are S.I. units (second, meters, Newtons, ...)
If the header above contains a line with 'inDegrees', this indicates whether rotational values are in degrees (yes) or radians (no).

endheader
time	pelvis_tilt	pelvis_list	pelvis_rotation	pelvis_tx	pelvis_ty	pelvis_tz	hip_flexion_r	hip_adduction_r	hip_rotation_r	knee_angle_r	knee_angle_r_beta	ankle_angle_r	subtalar_angle_r	mtp_angle_r	hip_flexion_l	hip_adduction_l	hip_rotation_l	knee_angle_l	knee_angle_l_beta	ankle_angle_l	subtalar_angle_l	mtp_angle_l	L5_S1_Flex_Ext	L5_S1_Lat_Bending	L5_S1_axial_rotation	L4_L5_Flex_Ext	L4_L5_Lat_Bending	L4_L5_axial_rotation	L3_L4_Flex_Ext	L3_L4_Lat_Bending	L3_L4_axial_rotation	L2_L3_Flex_Ext	L2_L3_Lat_Bending	L2_L3_axial_rotation	L1_L2_Flex_Ext	L1_L2_Lat_Bending	L1_L2_axial_rotation	L1_T12_Flex_Ext	L1_T12_Lat_Bending	L1_T12_axial_rotation	Abs_r3	Abs_r2	Abs_r1	Abs_t1	Abs_t2	neck_flexion	neck_bending	neck_rotation	arm_flex_r	arm_add_r	arm_rot_r	elbow_flex_r	pro_sup_r	wrist_flex_r	wrist_dev_r	arm_flex_l	arm_add_l	arm_rot_l	elbow_flex_l	pro_sup_l	wrist_flex_l	wrist_dev_l
      0.00000000	     -4.76484340	     -4.84691356	     72.41289649	      0.20788661	      0.84478442	      0.56469072	      8.89006787	      3.72153996	      3.56975678	      6.11391702	      0.10670798	     31.02360494	     -7.45880037	      0.00000000	      9.92622332	     -2.70977239	      1.77769895	      7.25248320	      0.12657971	     38.72618519	      9.09492998	      0.00000000	      0.74531671	      0.15759570	      0.08972212	      1.38412766	      0.20960228	      0.09532975	      1.22448082	      0.38317818	      0.09532975	      0.85182247	      0.38317818	      0.07850685	      0.69210110	      0.32136915	      0.07289922	      0.42587397	      0.24411574	      0.06729159	      5.32372272	      1.78275405	      0.49900749	      0.00000000	      0.00000000	     28.31286628	    -13.76454836	    -26.69565396	     24.74886422	     -4.34345179	    101.01949094	     33.71167930	     26.12011340	      7.49946373	     -4.94193383	     21.96190296	     -3.88829338	     84.14624931	     34.50148182	     55.60258010	      8.89830802	     -0.80939891
      0.01666667	     -4.51177278	     -4.97978453	     72.30852065	      0.20684810	      0.84528018	      0.56503901	      8.97704151	      3.97678748	      4.72029579	      5.39379028	      0.09413940	     31.31467930	     -7.60758849	      0.00000000	     10.02876565	     -2.79927510	      2.55766232	      7.43971764	      0.12984757	     38.28372003	      7.83384868	      0.00000000	      0.73592897	      0.20094092	      0.09575529	      1.36669368	      0.26725142	      0.10174000	      1.20905770	      0.48856775	      0.10174000	      0.84109321	      0.48856775	      0.08378588	      0.68338364	      0.40975872	      0.07780117	      0.42050981	      0.31125748	      0.07181647	      5.25666700	      2.27308386	      0.53256220	      0.00000000	      0.00000000	     28.29720656	    -14.86367845	    -28.46242106	     24.79772429	     -4.88694787	     99.23318391	     33.88146097	     31.74044392	      6.50575472	     -4.46361650	     21.04980997	     -3.11217349	     80.97296720	     33.60725096	     60.52272681	      9.24750673	     -0.09036905
      0.03333333	     -4.43896886	     -4.99639094	     72.33968964	      0.20605771	      0.84559688	      0.56536579	      9.14358503	      4.01027906	      5.04604075	      5.20155407	      0.09078424	     31.78192253	     -7.45154305	      0.00000000	     10.06297888	     -2.74683142	      2.52425568	      7.49911785	      0.13088430	     38.08954936	      7.80984396	      0.00000000	      0.72824599	      0.21896743	      0.07129784	      1.35242562	      0.29122669	      0.07575396	      1.19643533	      0.53239742	      0.07575396	      0.83231234	      0.53239742	      0.06238561	      0.67624922	      0.44651839	      0.05792950	      0.41611976	      0.33918056	      0.05347338	      5.20178827	      2.47700341	      0.39653722	      0.00000000	      0.00000000	     28.31007281	    -14.88342993	    -28.48135405	     24.97037208	     -4.93687167	     99.15682819	     33.66104085	     31.76244109	      6.35095308	     -4.42691809	     21.00183255	     -2.86838307	     80.98568899	     33.36618149	     60.58228810	      9.14973922	     -0.01930696
      0.05000000	     -4.17518870	     -5.08097673	     72.11570735	      0.20540938	      0.84606093	      0.56468443	      9.13264956	      4.16431835	      3.94928193	      4.95765475	      0.08652740	     32.25039863	     -5.20024340	      0.00000000	      9.95449496	     -2.83093956	      3.95282216	      7.45371574	      0.13009188	     37.85039466	      5.65986910	      0.00000000	      0.74330839	      0.27694340	      0.09984752	      1.38039801	      0.36833472	      0.10608799	      1.22118135	      0.67336018	      0.10608799	      0.84952716	      0.67336018	      0.08736658	      0.69023617	      0.56474298	      0.08112611	      0.42472641	      0.42898532	      0.07488564	      5.30937750	      3.13283911	      0.55532197	      0.00000000	      0.00000000	     28.30190169	    -14.84062366	    -27.24905973	     24.24190513	     -5.39022145	     96.23791696	     33.73941560	     35.62776490	      5.25124953	     -3.52635573	     20.49401454	     -1.87356417	     79.59447727	     32.07978219	     64.64736665	      9.06099603	     -0.40109361
      0.06666667	     -4.05123191	     -5.04883354	     71.85250850	      0.20510253	      0.84640660	      0.56406841	      9.23634675	      4.13040780	      1.86923661	      5.25498309	      0.09171676	     33.07236210	     -1.96503622	      0.00000000	      9.75528419	     -2.86307860	      3.93296845	      7.34524804	      0.12819876	     37.94472016	      5.31972439	      0.00000000	      0.75457584	      0.31711099	      0.12368694	      1.40132278	      0.42175762	      0.13141738	      1.23969264	      0.77102366	      0.13141738	      0.86240472	      0.77102366	      0.10822607	      0.70069912	      0.64665273	      0.10049564	      0.43116463	      0.49120492	      0.09276521	      5.38985974	      3.58722295	      0.68790967	      0.00000000	      0.00000000	     28.32141069	    -13.95094434	    -24.61523560	     23.64618503	     -5.51215200	     94.52001187	     33.46621845	     36.24593831	      5.03745565	     -3.26128121	     20.44591075	     -1.40368594	     80.26304884	     31.61937977	     62.52422405	      8.57615014	      0.22377173
      0.08333333	     -3.96375162	     -5.03379320	     72.07344913	      0.20494451	      0.84657724	      0.56253957	      8.73928219	      4.25928004	      4.09889090	      4.54903833	      0.07939570	     32.31225920	     -5.17613825	      0.00000000	      9.59100555	     -2.85160113	      4.20467844	      7.18877024	      0.12546771	     38.12413607	      5.26671340	      0.00000000	      0.80869364	      0.36161779	      0.02195553	      1.50182495	      0.48095166	      0.02332775	      1.32860277	      0.87923750	      0.02332775	      0.92425596	      0.87923750	      0.01921109	      0.75095291	      0.73741100	      0.01783887	      0.46208754	      0.56014596	      0.01646665	      5.77641777	      4.09069279	      0.12211008	      0.00000000	      0.00000000	     28.34590211	    -10.75501946	    -17.72397218	     23.41955767	     -5.25639813	     95.53863372	     33.10847457	     31.52283290	      4.86420513	     -3.13959355	     20.54176387	     -1.14311799	     81.85591934	     31.00977998	     63.36955695	      8.34094269	     -1.58944050
